<svg width="69" height="89" viewBox="0 0 69 89" fill="none" xmlns="http://www.w3.org/2000/svg">
<path d="M64.644 60.643C56.2017 59.4102 52.2911 60.7748 45.8543 64.552M64.644 60.643C56.0266 61.8834 51.9875 63.2306 45.8543 64.552M64.644 60.643C57.0269 60.8402 52.8917 61.5962 45.8543 64.552M64.644 60.643C53.4861 65.1502 49.1703 66.1635 45.8543 64.552M64.644 60.643C51.3445 66.8655 49.4987 66.7691 46.0536 64.6742M64.644 60.643C56.1195 63.249 51.665 64.445 46.0536 64.6742M45.8543 64.552C45.9214 64.5935 45.9878 64.6342 46.0536 64.6742" stroke="white" stroke-width="0.2"/>
<path d="M30.2484 21.4569C35.5547 24.7569 39.8596 32.1734 38.6485 37.4334M30.2484 21.4569C30.1331 27.333 34.5267 34.6897 38.6485 37.4334M30.2484 21.4569C34.671 27.2709 36.9052 30.5962 38.6485 37.4334M30.2484 21.4569C32.8605 27.9988 34.7031 31.4891 38.6485 37.4334" stroke="white" stroke-width="0.2"/>
<path d="M62.8355 36.8782C58.0069 38.8417 49.9701 39.1658 45.8453 37.1075M62.8355 36.8782C57.7703 35.2429 49.7528 35.6305 45.8453 37.1075M62.8355 36.8782C56.1481 37.6944 52.4324 38.0029 45.8453 37.1075M62.8355 36.8782C56.1841 36.5281 52.4696 36.5822 45.8453 37.1075" stroke="white" stroke-width="0.2"/>
<path d="M25.8755 45.7034C26.6441 54.8954 29.1288 58.4866 34.9024 63.8705M25.8755 45.7034C29.4081 54.2255 31.9059 57.9562 34.9024 63.8705M25.8755 45.7034C28.009 53.546 29.881 57.58 34.9024 63.8705M25.8755 45.7034C33.64 55.7388 35.8403 59.8718 34.9024 63.8705M25.8755 45.7034C36.0652 57.3721 36.4236 59.3222 34.9867 63.6215M25.8755 45.7034C30.8864 53.6587 33.3226 57.8729 34.9867 63.6215M34.9024 63.8705C34.9311 63.7865 34.9592 63.7036 34.9867 63.6215" stroke="white" stroke-width="0.2"/>
<path d="M48.2619 31.9732C50.922 28.4612 52.1168 26.4514 52.9775 22.6927M48.2619 31.9732C52.095 29.7504 53.7365 28.0601 56.1384 24.5848M48.2619 31.9732C47.4802 28.4139 47.6472 26.532 49.1529 23.9323C49.8098 22.1048 49.93 20.9084 50.0392 19.0546M48.2619 31.9732C50.3824 31.6559 52.5669 31.5197 55.0284 31.9993C58.4078 31.7676 59.6522 30.8189 59.3071 27.8228M48.2619 31.9732C52.5968 30.4428 54.5491 29.1881 56.53 25.7049M48.2619 31.9732C52.1099 31.1749 54.604 31.102 56.2713 27.8768M48.2619 31.9732L51.3619 23.1022M48.2619 31.9732C48.0028 27.526 49.8967 25.53 50.7524 20.565M48.2619 31.9732C49.9537 28.9893 50.7366 27.242 51.8614 24.0013M48.2619 31.9732C51.7564 28.8867 53.2184 26.9315 53.7444 22.5034M48.2619 31.9732C51.4938 29.2243 53.0998 27.5328 54.5504 23.4849M48.2619 31.9732C51.9244 29.3367 53.7921 27.7439 55.4187 23.8502M48.2619 31.9732C53.9464 31.0228 57.053 31.4362 58.0689 28.7821M50.0392 19.0546C51.3297 19.4611 51.5818 20.2164 51.7624 21.865L52.9775 22.6927M50.0392 19.0546C51.6084 17.5029 52.1258 18.1194 53.533 20.3105C55.2692 19.2628 56.3388 19.6432 57.3956 21.0326M52.9775 22.6927L52.9188 20.9365C53.8965 20.9291 54.9911 20.9568 55.3264 21.368M52.9775 22.6927C52.6165 21.3707 52.3163 20.6501 52.1335 19.7496M56.5531 23.9179L56.1384 24.5848M56.5531 23.9179C56.5531 23.9179 59.1896 24.3103 59.4961 24.3927M56.5531 23.9179C57.75 23.4432 58.2405 23.1257 58.5179 22.3892M56.5531 23.9179C56.8172 23.504 56.8966 23.22 56.8423 23.0188M56.1384 24.5848C57.9549 24.7809 57.8342 25.5138 56.7219 27.3123M56.7219 27.3123L59.3071 27.8228M56.7219 27.3123C58.0213 27.0884 58.4621 26.719 58.8502 25.7222M56.7219 27.3123C57.5689 26.3603 58.154 25.8502 58.126 24.71M59.3071 27.8228C59.1716 26.3124 59.4535 25.5943 59.4961 24.3927M59.4961 24.3927C59.3027 21.7095 59.1118 20.5191 57.3956 21.0326M55.0937 22.3915C55.5677 22.4695 56.0097 22.5179 56.3328 22.6175M55.0937 22.3915C55.9434 22.0012 56.3569 21.7582 56.5981 21.1346M55.0937 22.3915C55.4688 21.9092 55.5034 21.5852 55.3264 21.368M57.3956 21.0326C57.3641 21.7222 57.0812 22.06 56.3328 22.6175M56.8423 23.0188C57.3967 22.6597 57.6477 22.4513 57.8438 22.0497M56.8423 23.0188C56.7882 22.8187 56.6017 22.7004 56.3328 22.6175M55.3264 21.368C55.7868 21.103 55.9256 20.922 56.0266 20.559" stroke="white" stroke-width="0.2"/>
<path d="M31.748 85.1027C31.4288 77.0727 32.1193 72.1156 33.891 66.8652M39.8829 21.5617C40.5031 28.0741 42.1018 42.7569 41.2161 47.5679M36.3044 60.7482C36.4323 60.4543 36.563 60.1566 36.6965 59.8548C39.1085 55.246 40.5061 51.4241 41.2161 47.5679M36.3044 60.7482C37.4972 56.663 36.6431 53.5967 35.9233 48.2684M36.3044 60.7482C35.3496 62.9409 34.5463 64.9231 33.891 66.8652M41.2161 47.5679C43.4888 40.4409 45.7226 38.0881 48.6947 31.4296M33.891 66.8652C42.6558 55.5725 44.9954 49.0881 38.5219 36.8904" stroke="white" stroke-width="0.2"/>
<path d="M33.9855 66.6314C43.2828 61.7361 48.9621 58.485 51.8246 52.9254M33.9855 66.6314C40.7712 60.9258 44.4897 57.5592 51.8246 52.9254M33.9855 66.6314C39.2196 59.8921 43.7499 57.4653 51.8246 52.9254M33.9855 66.6314C41.4689 62.0728 45.6669 59.4245 51.8246 52.9254" stroke="white" stroke-width="0.2"/>
<path d="M40.6388 30.7184C44.6667 24.9816 46.9951 21.3291 46.1836 17.2621M40.6388 30.7184C42.4989 25.3205 43.3966 22.2262 46.1836 17.2621M40.6388 30.7184C40.8897 25.2272 42.8314 22.4082 46.1836 17.2621M40.6388 30.7184C43.5678 25.7498 45.1648 22.9108 46.1836 17.2621" stroke="white" stroke-width="0.2"/>
<path d="M40.1694 22.7394C40.1047 13.725 43.6691 7.57222 39.5172 2.44063M40.1694 22.7394C36.4275 15.1382 39.5172 2.44063 39.5172 2.44063M40.1694 22.7394C39.0539 13.9477 42.0852 8.11602 39.5172 2.44063M40.1694 22.7394C37.3388 11.9189 40.8664 8.69505 39.5172 2.44063" stroke="white" stroke-width="0.2"/>
<path d="M22.1824 42.5848C21.0717 38.1729 20.2456 35.9269 17.9012 32.8949M22.1824 42.5848C22.7302 37.964 22.4058 35.5332 21.1727 31.3636M22.1824 42.5848C19.0332 41.0721 17.7058 39.7785 16.614 36.9069C15.6129 35.2299 14.7772 34.3956 13.4375 33.1685M22.1824 42.5848C23.1761 40.5868 24.3441 38.6451 26.1395 36.8446C27.9305 33.8279 27.9364 32.1888 25.4677 30.6492M22.1824 42.5848C23.5463 37.9607 23.7325 35.5322 22.2485 31.7157M22.1824 42.5848C23.8171 38.8229 25.2133 36.6565 23.7421 33.2648M22.1824 42.5848L17.2711 34.5198M22.1824 42.5848C18.6651 40.0842 18.2562 37.2517 14.9958 33.4858M22.1824 42.5848C20.9081 39.3199 20.041 37.5847 18.2423 34.645M22.1824 42.5848C21.8794 37.7236 21.25 35.2835 18.2041 32.1266M22.1824 42.5848C21.9821 38.1535 21.6362 35.7523 19.4161 32.0415M22.1824 42.5848C22.3178 37.856 22.1988 35.2925 20.1978 31.5263M22.1824 42.5848C24.7706 37.1675 26.8913 34.7776 25.4733 32.2895M13.4375 33.1685C14.4961 32.3194 15.2145 32.5669 16.5675 33.4221L17.9012 32.8949M13.4375 33.1685C13.176 30.8841 13.9437 30.8212 16.4211 30.9647C16.6383 28.8466 17.5486 28.1695 19.2153 28.1206M17.9012 32.8949L16.5376 31.8702C17.101 31.034 17.7588 30.1197 18.2652 30.0861M17.9012 32.8949C16.6904 32.393 15.9702 32.2076 15.1822 31.8121M20.9092 30.6027L21.1727 31.3636M20.9092 30.6027C20.9092 30.6027 22.7404 28.5999 22.9812 28.3896M20.9092 30.6027C21.2464 29.2941 21.2914 28.6825 20.8953 27.9959M20.9092 30.6027C20.7496 30.1248 20.5809 29.8835 20.3969 29.8066M21.1727 31.3636C22.3782 29.9383 22.8628 30.4893 23.5769 32.5361M23.5769 32.5361L25.4677 30.6492M23.5769 32.5361C24.1635 31.2937 24.1404 30.6927 23.6117 29.7525M23.5769 32.5361C23.3491 31.233 23.3035 30.4231 22.4241 29.7493M25.4677 30.6492C24.2455 29.8403 23.8659 29.1611 22.9812 28.3896M22.9812 28.3896C20.8375 26.9124 19.8253 26.3464 19.2153 28.1206M18.9046 30.9103C19.2394 30.5548 19.5333 30.2084 19.7967 29.9945M18.9046 30.9103C19.1035 29.9487 19.1602 29.4482 18.8286 28.8614M18.9046 30.9103C18.7578 30.2961 18.5326 30.0684 18.2652 30.0861M19.2153 28.1206C19.7191 28.5693 19.8101 29.0167 19.7967 29.9945M20.3969 29.8066C20.4477 29.1152 20.436 28.7742 20.2461 28.3617M20.3969 29.8066C20.2139 29.7301 20.0158 29.8164 19.7967 29.9945M18.2652 30.0861C18.3325 29.5323 18.2762 29.3034 18.0603 28.9954" stroke="white" stroke-width="0.2"/>
<path d="M35.4353 85.8303C30.2782 79.8447 31.9064 67.7923 30.0169 62.5155C29.318 60.5636 27.0738 58.1195 26.4455 55.7679M26.4455 55.7679C26.3613 55.4526 26.2768 55.1326 26.1918 54.8075C25.1746 49.5858 23.88 45.6703 22.0496 42.2016M26.4455 55.7679C24.8363 51.7898 22.319 50.0082 18.5169 46.3859" stroke="white" stroke-width="0.2"/>
<path d="M8.57249 39.8418C13.3805 44.9207 16.4709 47.9239 20.3334 47.9447M8.57249 39.8418C13.3354 42.7367 16.0865 44.2317 20.3334 47.9447M8.57249 39.8418C13.621 41.1845 15.9882 43.6436 20.3334 47.9447M8.57249 39.8418C12.806 43.6944 15.2344 45.8209 20.3334 47.9447" stroke="white" stroke-width="0.2"/>
<path d="M12.3241 50.8074C18.2907 57.3479 19.8198 64.4759 26.1168 65.1616M12.3241 50.8074C19.9544 53.6007 26.1168 65.1616 26.1168 65.1616M12.3241 50.8074C18.8851 56.4096 20.5789 62.9093 26.1168 65.1616M12.3241 50.8074C21.4266 56.6262 21.0577 61.5864 26.1168 65.1616" stroke="white" stroke-width="0.2"/>
<path d="M36.8862 84.2765C25.403 72.6246 28.176 61.3142 16.7934 49.9369" stroke="white" stroke-width="0.2"/>
<path d="M35.8281 48.2148C38.2721 46.1147 39.3774 46.376 38.0578 39.3169C37.6319 39.1506 37.5387 38.731 36.7483 38.7421M35.8281 48.2148L35.4281 40.6935M35.8281 48.2148C33.879 46.2623 32.9791 45.0206 31.7984 42.4831L32.5332 42.3858M35.8281 48.2148C34.2442 47.9616 33.5062 47.5236 32.7394 46.1924L32.2331 46.3529M35.8281 48.2148C37.2339 46.0675 37.7432 44.7905 37.9362 42.3253M35.8281 48.2148C36.4361 45.657 36.725 44.2211 36.1697 41.624M35.8281 48.2148C36.7867 45.6891 37.1525 44.2363 37.1206 41.4981M35.8281 48.2148C33.4197 45.8528 31.2934 44.6071 31.0196 41.277M35.8281 48.2148C33.5285 44.2177 34.8134 41.6116 33.0685 39.5097M35.8281 48.2148C34.961 45.4514 34.6603 44.0216 34.749 40.8769M35.8281 48.2148C34.3243 45.985 33.5778 44.8021 32.9045 43.1509M36.7483 38.7421C36.6198 40.4391 36.25 40.6711 35.4281 40.6935M36.7483 38.7421C34.993 36.1691 35.1791 37.5471 32.0304 38.3379M35.4281 40.6935C35.03 39.2947 34.2974 38.7704 32.0304 38.3379M32.0304 38.3379L32.4241 39.595M32.4241 39.595L33.2679 42.2886L32.5332 42.3858M32.4241 39.595C31.404 40.0999 30.7921 40.0679 29.6104 39.3128L29.0058 40.0474C29.5118 42.9815 30.1621 44.3575 31.7269 46.5134L32.2331 46.3529M32.2331 46.3529C31.0217 44.4217 30.4365 43.3112 30.2872 41.066M32.5332 42.3858C32.2098 41.8085 32.1635 41.3732 32.1517 40.5387" stroke="white" stroke-width="0.2"/>
<path d="M29.7342 83.873C37.5243 62.5309 50.6073 65.4204 57.8128 56.5924" stroke="white" stroke-width="0.2"/>
</svg>
