<svg width="97" height="24" viewBox="0 0 97 24" fill="none" xmlns="http://www.w3.org/2000/svg">
<path d="M8.27783 11.0956C40.9424 22.9837 61.0782 21.6628 88.3732 9.5105" stroke="#D9D9D9" stroke-width="2"/>
<path d="M71.6984 12.8186C71.0155 13.7872 70.3623 14.5022 69.8186 14.8647C69.2639 15.2345 69.1061 15.0826 69.0562 15.0336C68.8775 14.8578 68.6299 14.2997 68.6545 13.362C68.6777 12.481 68.9459 11.4852 69.5175 10.6745C70.1437 9.78654 70.8623 9.20001 71.479 8.93727C72.1242 8.66235 72.4634 8.8028 72.5935 8.93072C72.7236 9.05865 72.902 9.42706 72.79 10.2262C72.6829 10.9898 72.3246 11.9307 71.6984 12.8186Z" stroke="#D9D9D9" stroke-width="2"/>
<path d="M73.1948 17.4381C72.1665 17.1397 71.3063 17.0163 70.7174 17.0803C70.1451 17.1424 70.0831 17.3289 70.0603 17.4383C70.0032 17.7125 70.1097 18.2908 70.5961 18.9578C71.0576 19.5905 71.7564 20.1449 72.5815 20.3844C73.5057 20.6527 74.3462 20.644 74.9444 20.4639C75.5594 20.2788 75.7714 19.9739 75.8157 19.761C75.86 19.548 75.7919 19.1618 75.3197 18.6611C74.8603 18.1741 74.119 17.7064 73.1948 17.4381Z" stroke="#D9D9D9" stroke-width="2"/>
<path d="M24.0265 20.3191C24.8798 19.5633 25.5214 18.8409 25.8652 18.2406C26.2075 17.6426 26.0992 17.4851 26.0804 17.4579C26.0798 17.4569 26.0792 17.4561 26.0788 17.4555C25.9685 17.2819 25.5575 17.0025 24.7917 17.0249C24.0769 17.0459 23.2438 17.3372 22.5324 17.9673C21.7516 18.6589 21.2095 19.4538 20.9408 20.1337C20.6575 20.8506 20.7522 21.2019 20.8253 21.3169C20.8983 21.432 21.1575 21.6377 21.8196 21.5171C22.4476 21.4028 23.2456 21.0108 24.0265 20.3191Z" stroke="#D9D9D9" stroke-width="2"/>
<path d="M84.2272 9.12011C83.5443 10.0886 82.8911 10.8037 82.3474 11.1662C81.7927 11.536 81.6349 11.384 81.5851 11.335C81.4063 11.1593 81.1587 10.6012 81.1833 9.66353C81.2065 8.78247 81.4747 7.78664 82.0463 6.97599C82.6725 6.08802 83.3911 5.50149 84.0078 5.23876C84.653 4.96383 84.9922 5.10428 85.1223 5.23221C85.2524 5.36013 85.4308 5.72854 85.3188 6.52764C85.2117 7.29131 84.8534 8.23214 84.2272 9.12011Z" stroke="#D9D9D9" stroke-width="2"/>
<path d="M15.0248 8.55737C15.3441 9.76777 15.5021 10.8231 15.4631 11.5822C15.4436 11.9611 15.3783 12.1891 15.3193 12.3078C15.2778 12.3914 15.2542 12.3999 15.2317 12.4081C15.2307 12.4084 15.2298 12.4088 15.2288 12.4091C15.0758 12.4654 14.5716 12.445 13.8972 11.8937C13.276 11.3859 12.6959 10.5592 12.4205 9.51507C12.1236 8.38928 12.096 7.33394 12.2482 6.56019C12.4125 5.72518 12.7043 5.51991 12.7872 5.48944C12.8701 5.45896 13.2091 5.43226 13.7458 6.00946C14.2432 6.54432 14.7279 7.43158 15.0248 8.55737Z" stroke="#D9D9D9" stroke-width="2"/>
<path d="M25.7641 11.7275C26.0833 12.9379 26.2413 13.9933 26.2023 14.7524C26.1829 15.1313 26.1175 15.3593 26.0585 15.478C26.017 15.5616 25.9934 15.5701 25.971 15.5782C25.97 15.5786 25.969 15.5789 25.9681 15.5793C25.8151 15.6356 25.3108 15.6152 24.6365 15.0639C24.0152 14.556 23.4352 13.7293 23.1598 12.6852C22.8629 11.5594 22.8352 10.5041 22.9875 9.73035C23.1518 8.89535 23.4436 8.69008 23.5265 8.6596C23.6094 8.62913 23.9483 8.60242 24.4851 9.17962C24.9824 9.71448 25.4672 10.6017 25.7641 11.7275Z" stroke="#D9D9D9" stroke-width="2"/>
<path d="M20.3945 10.1425C20.7137 11.3529 20.8717 12.4082 20.8327 13.1673C20.8132 13.5462 20.7479 13.7742 20.6889 13.8929C20.6474 13.9765 20.6238 13.985 20.6013 13.9932C20.6004 13.9935 20.5994 13.9939 20.5984 13.9942C20.4455 14.0505 19.9412 14.0301 19.2668 13.4788C18.6456 12.971 18.0655 12.1442 17.7902 11.1002C17.4932 9.97436 17.4656 8.91902 17.6178 8.14527C17.7821 7.31027 18.074 7.105 18.1569 7.07452C18.2397 7.04404 18.5787 7.01734 19.1154 7.59454C19.6128 8.1294 20.0975 9.01666 20.3945 10.1425Z" stroke="#D9D9D9" stroke-width="2"/>
<path d="M85.8316 12.9601C84.6002 12.7292 83.5621 12.6764 82.8508 12.8182C82.1509 12.9578 82.0307 13.2075 82.0036 13.4088C81.9538 13.7794 82.154 14.4671 82.797 15.1945C83.4109 15.8891 84.307 16.4689 85.3338 16.6614C86.4605 16.8727 87.4713 16.7725 88.1846 16.4911C88.9165 16.2024 89.1827 15.8011 89.224 15.4936C89.2654 15.1861 89.1176 14.7071 88.4974 14.1649C87.8931 13.6364 86.9583 13.1713 85.8316 12.9601Z" stroke="#D9D9D9" stroke-width="2"/>
<path d="M11.9978 16.8604C13.179 16.3807 14.1219 15.8493 14.6986 15.3251C15.2736 14.8023 15.2667 14.5179 15.2169 14.3469C15.1181 14.008 14.6775 13.5127 13.8154 13.2252C12.9951 12.9517 11.9658 12.9351 10.9719 13.3388C9.88641 13.7797 9.02812 14.433 8.50677 15.0812C7.96886 15.75 7.90339 16.2457 7.9838 16.5217C8.06422 16.7978 8.37411 17.141 9.14662 17.2775C9.89535 17.4098 10.9124 17.3014 11.9978 16.8604Z" stroke="#D9D9D9" stroke-width="2"/>
<path d="M79.7489 16.1249C78.6437 15.7492 77.6985 15.5468 77.0375 15.5536C76.7086 15.557 76.5215 15.6123 76.4301 15.6619C76.3681 15.6956 76.3636 15.7146 76.3578 15.7386C76.3576 15.7394 76.3574 15.7402 76.3572 15.7411C76.3198 15.8941 76.3805 16.3996 76.9202 17.0966C77.4183 17.74 78.1918 18.3535 79.128 18.6717C80.1471 19.0182 81.078 19.0896 81.7421 18.9705C82.4544 18.8429 82.6069 18.5647 82.6269 18.4823C82.647 18.3999 82.6432 18.0686 82.0974 17.5133C81.5885 16.9954 80.768 16.4714 79.7489 16.1249Z" stroke="#D9D9D9" stroke-width="2"/>
<path d="M17.7201 18.634C18.771 18.0764 19.6083 17.5068 20.1139 16.9921C20.3662 16.7354 20.481 16.5471 20.5243 16.4376C20.5512 16.3696 20.5448 16.3561 20.5402 16.3465C20.5396 16.3454 20.5391 16.3443 20.5387 16.3431C20.4907 16.2171 20.1798 15.8754 19.3778 15.754C18.6421 15.6426 17.7081 15.7648 16.8097 16.2415C15.8364 16.7579 15.0813 17.4184 14.6357 18.0212C14.1532 18.6741 14.2016 18.9953 14.2231 19.0517C14.2445 19.1081 14.4158 19.3642 15.1496 19.3717C15.8272 19.3786 16.7469 19.1504 17.7201 18.634Z" stroke="#D9D9D9" stroke-width="2"/>
<path d="M77.9631 11.2335C77.2802 12.2021 76.627 12.9171 76.0832 13.2796C75.5286 13.6494 75.3707 13.4975 75.3209 13.4485C75.1421 13.2727 74.8946 12.7146 74.9192 11.777C74.9423 10.8959 75.2106 9.90008 75.7822 9.08943C76.4083 8.20146 77.127 7.61493 77.7436 7.35219C78.3889 7.07727 78.728 7.21772 78.8581 7.34564C78.9883 7.47356 79.1667 7.84198 79.0546 8.64107C78.9475 9.40475 78.5892 10.3456 77.9631 11.2335Z" stroke="#D9D9D9" stroke-width="2"/>
<path d="M94.9333 5.84206C95.3495 7.00868 94.6777 8.72614 93.0427 9.53944C92.1825 9.96727 90.4462 10.4387 88.8345 10.5734C88.0338 10.6402 87.3321 10.6174 86.8225 10.498C86.5694 10.4386 86.3999 10.3636 86.2962 10.2935C86.2465 10.26 86.2189 10.2322 86.2047 10.2149C86.1977 10.2064 86.1939 10.2004 86.1919 10.197C86.19 10.1937 86.1894 10.192 86.1892 10.1915C86.1891 10.1911 86.1885 10.1893 86.1878 10.1854C86.1871 10.1814 86.1861 10.1739 86.1858 10.1621C86.1853 10.138 86.1878 10.0953 86.2021 10.0299C86.2321 9.89329 86.305 9.69766 86.4459 9.44233C86.7295 8.92833 87.2059 8.31956 87.8058 7.68975C89.0132 6.4221 90.5119 5.28441 91.372 4.85658C93.0071 4.04328 94.5171 4.67544 94.9333 5.84206Z" stroke="#D9D9D9" stroke-width="2"/>
<path d="M2.73864 3.33542C3.39894 2.50919 4.99741 2.43057 6.37514 3.96574C7.07061 4.74068 8.14612 6.44383 8.90539 8.13972C9.28366 8.9846 9.55301 9.76145 9.66803 10.3695C9.75716 10.8408 9.72449 11.0427 9.71043 11.1039C9.65954 11.124 9.49071 11.1742 9.08711 11.0964C8.56633 10.9961 7.89393 10.7236 7.1577 10.3266C5.67991 9.52979 4.17766 8.36062 3.48219 7.58568C2.10446 6.05051 2.07835 4.16164 2.73864 3.33542Z" stroke="#D9D9D9" stroke-width="2"/>
</svg>
